<?xml version="1.0" encoding="UTF-8" standalone="no"?>
<svg xmlns="http://www.w3.org/2000/svg" width="256px" height="256px" viewBox="0 0 256 256" version="1.1" preserveAspectRatio="xMidYMid">
    <g>
        <path d="M0,0 L256,0 L256,256 L0,256 L0,0 Z" fill="#F7DF1E"></path>
        <path d="M67.3113595,213.192051 L86.902623,202.403176 C89.7345461,208.869722 92.3182583,214.574596 99.5377083,214.574596 C106.457358,214.574596 110.980455,211.770033 110.980455,202.10346 L110.980455,118.07679 L133.727637,118.07679 L133.727637,202.700765 C133.727637,226.580476 120.096886,237.66929 100.323117,237.66929 C82.7532787,237.66929 72.3274538,227.928941 67.3113595,213.192051 L67.3113595,213.192051 Z" fill="#000000"></path>
        <path d="M152.396477,211.509051 L171.98764,201.019243 C176.211313,209.060024 181.815544,215.05735 193.086194,215.05735 C202.589339,215.05735 208.792155,209.951831 208.792155,203.055761 C208.792155,194.712441 202.689064,191.609318 192.084428,186.306005 L186.379429,183.800034 C169.686797,175.456714 159.0834,164.969067 159.0834,145.083895 C159.0834,126.991246 172.715056,113.658972 192.587245,113.658972 C206.617186,113.658972 216.820624,118.363031 224.363756,132.396852 L205.569307,143.686431 C202.041557,136.825451 198.125301,133.721327 192.485519,133.721327 C186.646292,133.721327 182.830629,137.525976 182.830629,143.686431 C182.830629,151.326897 186.746245,154.431021 196.75251,159.334046 L202.45751,161.838285 C222.258764,171.778731 232.863025,181.962641 232.863025,202.449206 C232.863025,224.229261 215.772401,235.920113 193.685994,235.920113 C172.288772,235.920113 157.858177,225.178968 152.396477,211.509051 L152.396477,211.509051 Z" fill="#000000"></path>
    </g>
</svg>